<svg width="25" height="25" viewBox="0 0 25 25" fill="none" xmlns="http://www.w3.org/2000/svg">
<path d="M12.4995 3.03016C15.7035 3.03016 16.0835 3.04216 17.3485 3.10016C18.6565 3.16016 20.0035 3.45816 20.9565 4.41116C21.9185 5.37316 22.2075 6.70716 22.2675 8.01916C22.3255 9.28416 22.3375 9.66416 22.3375 12.8682C22.3375 16.0722 22.3255 16.4522 22.2675 17.7172C22.2085 19.0182 21.9035 20.3782 20.9565 21.3252C19.9945 22.2872 18.6615 22.5762 17.3485 22.6362C16.0835 22.6942 15.7035 22.7062 12.4995 22.7062C9.29551 22.7062 8.91551 22.6942 7.65051 22.6362C6.35951 22.5772 4.98151 22.2652 4.04251 21.3252C3.08551 20.3682 2.79151 19.0212 2.73151 17.7172C2.67351 16.4522 2.66151 16.0722 2.66151 12.8682C2.66151 9.66416 2.67351 9.28416 2.73151 8.01916C2.79051 6.72316 3.09851 5.35516 4.04251 4.41116C5.00251 3.45116 6.34151 3.16016 7.65051 3.10016C8.91551 3.04216 9.29551 3.03016 12.4995 3.03016ZM12.4995 0.868164C9.24051 0.868164 8.83151 0.882164 7.55151 0.940164C5.69651 1.02516 3.85451 1.54116 2.51351 2.88216C1.16751 4.22816 0.656512 6.06616 0.571512 7.92016C0.513512 9.20016 0.499512 9.60916 0.499512 12.8682C0.499512 16.1272 0.513512 16.5362 0.571512 17.8162C0.656512 19.6692 1.17451 21.5162 2.51351 22.8542C3.85851 24.1992 5.69951 24.7112 7.55151 24.7962C8.83151 24.8542 9.24051 24.8682 12.4995 24.8682C15.7585 24.8682 16.1675 24.8542 17.4475 24.7962C19.3015 24.7112 21.1455 24.1942 22.4855 22.8542C23.8325 21.5072 24.3425 19.6702 24.4275 17.8162C24.4855 16.5362 24.4995 16.1272 24.4995 12.8682C24.4995 9.60916 24.4855 9.20016 24.4275 7.92016C24.3425 6.06516 23.8255 4.22216 22.4855 2.88216C21.1425 1.53916 19.2965 1.02416 17.4475 0.940164C16.1675 0.882164 15.7585 0.868164 12.4995 0.868164Z" fill="#414141"/>
<path d="M12.4994 6.70605C9.0964 6.70605 6.3374 9.46505 6.3374 12.8681C6.3374 16.2711 9.0964 19.0301 12.4994 19.0301C15.9024 19.0301 18.6614 16.2711 18.6614 12.8681C18.6614 9.46505 15.9024 6.70605 12.4994 6.70605ZM12.4994 16.8681C10.2904 16.8681 8.4994 15.0771 8.4994 12.8681C8.4994 10.6591 10.2904 8.86806 12.4994 8.86806C14.7084 8.86806 16.4994 10.6591 16.4994 12.8681C16.4994 15.0771 14.7084 16.8681 12.4994 16.8681Z" fill="#414141"/>
<path d="M18.9056 7.90246C19.7009 7.90246 20.3456 7.25775 20.3456 6.46246C20.3456 5.66717 19.7009 5.02246 18.9056 5.02246C18.1103 5.02246 17.4656 5.66717 17.4656 6.46246C17.4656 7.25775 18.1103 7.90246 18.9056 7.90246Z" fill="#414141"/>
</svg>
