<svg width="25" height="25" viewBox="0 0 25 25" fill="none" xmlns="http://www.w3.org/2000/svg">
<path d="M20.9499 21.3187H17.3934V15.7493C17.3934 14.4211 17.3698 12.7121 15.5437 12.7121C13.6915 12.7121 13.4077 14.1585 13.4077 15.6535V21.3187H9.85244V9.86526H13.2669V11.43H13.3143C14.0109 10.2402 15.3048 9.52937 16.6826 9.58022C20.2876 9.58022 20.9511 11.9516 20.9511 15.0349L20.9499 21.3187ZM5.83948 8.29934C4.69934 8.29934 3.77564 7.37564 3.77564 6.2355C3.77564 5.09536 4.69934 4.17166 5.83948 4.17166C6.97962 4.17166 7.90332 5.09536 7.90332 6.2355C7.90332 7.37564 6.97962 8.29934 5.83948 8.29934ZM7.61711 21.3187H4.05713V9.86526H7.61711V21.3187ZM22.7228 0.869508H2.27004C1.30376 0.858864 0.511339 1.63354 0.499512 2.59982V23.1365C0.511339 24.104 1.30376 24.8787 2.27004 24.868H22.7228C23.6914 24.8799 24.4874 24.1052 24.5004 23.1365V2.59864C24.4862 1.63 23.6902 0.855316 22.7228 0.868326" fill="#414141"/>
</svg>
