<svg width="25" height="18" viewBox="0 0 25 18" fill="none" xmlns="http://www.w3.org/2000/svg">
<path d="M23.9975 3.05406C23.7215 2.01506 22.9085 1.19606 21.8755 0.918063C20.0045 0.414063 12.4995 0.414062 12.4995 0.414062C12.4995 0.414062 4.99451 0.414063 3.12251 0.918063C2.09051 1.19606 1.27751 2.01406 1.00151 3.05406C0.499512 4.93806 0.499512 8.86806 0.499512 8.86806C0.499512 8.86806 0.499512 12.7981 1.00151 14.6821C1.27751 15.7211 2.09051 16.5401 3.12351 16.8181C4.99451 17.3221 12.4995 17.3221 12.4995 17.3221C12.4995 17.3221 20.0045 17.3221 21.8765 16.8181C22.9085 16.5401 23.7215 15.7221 23.9985 14.6821C24.4995 12.7981 24.4995 8.86806 24.4995 8.86806C24.4995 8.86806 24.4995 4.93806 23.9975 3.05406ZM10.0455 12.4371V5.29906L16.3175 8.86806L10.0455 12.4371Z" fill="#414141"/>
</svg>
